# xmcd
#
# Track frame offsets:
#	150
#	13572
#	25645
#	36900
#	52172
#	66282
#	82275
#	92400
#	107097
#	127447
#	148910
#	172972
#	185572
#
# Disc length: 2670 seconds
#
# Revision: 1
# Processed by: cddbd v1.5.2PL0 Copyright (c) Steve Scherf et al.
# Submitted via: audiograbber 1.83.01
#
DISCID=bc0a6c0d
DTITLE=Various Artist - Austro Country Vol.1
DYEAR=1992
DGENRE=Country
TTITLE0=White Horse - Please Baby come back
TTITLE1=Bill Herms - Ghostrider
TTITLE2=Route Sixty-Six - Cajun Lady
TTITLE3=Harry Bonanza and Band - Biggets Country Singer in the World
TTITLE4=Saltcastle Bullwashers - Du g'hearst zu mir
TTITLE5=Wies-Texas - I kumm von Country net los
TTITLE6=Lewis Niderman and Band - My Baby's gone
TTITLE7=Robert Steubl and Band - I'm the greatest Country Music Fan
TTITLE8=Hank Maddox - It's just a broken Heart
TTITLE9=Rednecks - Stell da vur
TTITLE10=Ca$$a Blanca - Tennessee River
TTITLE11=Country Time Special - Trucker Lady
TTITLE12=Campfire - Jack Pierre Bardoux
EXTD=
EXTT0=
EXTT1=
EXTT2=
EXTT3=
EXTT4=
EXTT5=
EXTT6=
EXTT7=
EXTT8=
EXTT9=
EXTT10=
EXTT11=
EXTT12=
PLAYORDER=
